<?xml version="1.0" encoding="utf-8"?>
<!-- Generator: Adobe Illustrator 22.1.0, SVG Export Plug-In . SVG Version: 6.00 Build 0)  -->
<svg version="1.1" id="Layer_1" xmlns="http://www.w3.org/2000/svg" xmlns:xlink="http://www.w3.org/1999/xlink" x="0px" y="0px"
	 viewBox="0 0 24 24" style="enable-background:new 0 0 24 24;" xml:space="preserve">
<path d="M16.6,12l6.8,6.8c0.4,0.4,0.6,0.9,0.6,1.5c0,0.6-0.2,1.1-0.6,1.6l-1.5,1.5c-0.5,0.4-1,0.6-1.6,0.6c-0.6,0-1.1-0.2-1.5-0.6
	L12,16.6l-6.8,6.8C4.8,23.8,4.3,24,3.7,24s-1.1-0.2-1.6-0.6l-1.5-1.5c-0.4-0.5-0.6-1-0.6-1.6c0-0.6,0.2-1.1,0.6-1.5L7.4,12L0.6,5.2
	C0.2,4.8,0,4.3,0,3.7s0.2-1.1,0.6-1.6l1.5-1.5C2.6,0.2,3.1,0,3.7,0s1.1,0.2,1.5,0.6L12,7.4l6.8-6.8C19.2,0.2,19.7,0,20.3,0
	c0.6,0,1.1,0.2,1.6,0.6l1.5,1.5c0.4,0.5,0.6,1,0.6,1.6s-0.2,1.1-0.6,1.5L16.6,12z"/>
</svg>
